<svg width="24" height="24" viewBox="0 0 24 24" fill="none" xmlns="http://www.w3.org/2000/svg">
<path fill-rule="evenodd" clip-rule="evenodd" d="M4 7.55556L7.36842 4V4.00005L7.36847 4H9.89473H10.7369H14.1053H14.9474H16.6316L18.3158 7.11111L19.1579 8.44444L17.4738 8.44444V9.33333H16.6317V12L20.0001 12V17.3333H12.4211V12L15.7896 12V9.33333H14.9475V8.44444L14.9474 8.44444H14.1053H10.7369V11.1111V12V14.6667V15.5556V19.1111L10.7369 19.1111L12.4211 19.1111V20H4.84216V19.1111L6.52637 19.1111V15.5556V14.6667V12V11.1111V8.44444H4V7.55556ZM9.89479 13.2571V14.6667H8.55939L9.89479 13.2571ZM7.36852 15.5556L9.89479 15.5556V18.2222L7.36852 15.5556ZM7.36852 16.8126L8.70392 18.2222H7.36852V16.8126ZM9.89479 12L7.36847 14.6667V12H9.89479ZM7.71728 4.88889H9.89473V4.88895L7.36847 7.55556V5.25708L7.71728 4.88889ZM8.55939 7.55556L9.89473 6.14603V7.55556H8.55939ZM10.7369 7.55555L10.9053 7.55556L13.9368 4.88889H11.2101L10.7369 5.30517V7.55555ZM14.1053 7.55556H12.2207L14.1053 5.89781V7.55556ZM9.89473 8.44444L9.89479 8.44444V10.8889L8.04216 8.44444L9.89473 8.44444ZM5.19092 7.55556L6.52632 6.14597V7.55556H5.19092ZM7.36847 8.97847L8.98479 11.1111H7.36847V8.97847ZM14.9474 7.55556V4.88889H16.1429L17.5865 7.55556H14.9474ZM14.1052 13.7778H14.9473V15.5556H14.1052V13.7778ZM13.2632 12.8889H19.158V16.4444H13.2632V12.8889ZM17.4738 13.7778H18.3159V15.5556H17.4738V13.7778ZM15.7894 15.5556H16.6315V13.7778H15.7894V15.5556Z" fill="#086DD7"/>
</svg>
