<svg width="24" height="25" viewBox="0 0 24 25" fill="none" xmlns="http://www.w3.org/2000/svg">
<path d="M15.4227 3.18318L15.335 5.21624C15.3322 5.33041 15.4598 5.40071 15.5481 5.33041L16.3172 4.72977L16.9702 5.25392C17.0552 5.31241 17.1691 5.25392 17.1746 5.14819L17.101 3.08026L18.069 3.00434C18.5716 2.96891 19 3.38227 19 3.90361V20.1017C19 20.6175 18.5825 21.0274 18.0832 21.001L6.38111 20.4622C5.92707 20.442 5.56078 20.0641 5.54661 19.5922L5.00154 4.74439C4.9732 4.24667 5.33948 3.81869 5.82187 3.79226L15.4145 3.16856L15.4227 3.18318ZM13.1917 9.97861C13.1917 10.3301 15.4887 10.1575 15.8004 9.91731C15.8004 7.51813 14.5511 6.24993 12.2689 6.24993C9.98074 6.24993 8.7091 7.54175 8.7091 9.46908C8.7091 12.8052 13.0696 12.8637 13.0696 14.6859C13.0696 15.2134 12.8369 15.512 12.306 15.512C11.6078 15.512 11.3238 15.1459 11.3609 13.8923C11.3609 13.6229 8.7091 13.5318 8.62134 13.8923C8.42566 16.9152 10.2424 17.7909 12.3262 17.7909C14.356 17.7909 15.94 16.6751 15.94 14.6566C15.94 11.0803 11.5058 11.1765 11.5058 9.40778C11.5058 8.68116 12.0313 8.58443 12.3262 8.58443C12.6554 8.58443 13.2348 8.6373 13.1923 9.9848L13.1917 9.97861Z" fill="#1C90ED"/>
</svg>
